<?xml version="1.0" standalone="no"?>
<svg
  width="600"
  height="600"
  viewBox="0 0 600 600"
  xmlns="http://www.w3.org/2000/svg"
>
  <g transform="translate(300,300)">
    <path d="M150.8,-217.3C196,-205.6,233.5,-164.7,242.4,-118.5C251.3,-72.4,231.6,-21,212.2,22C192.9,65.1,173.9,99.6,151.3,137.8C128.6,175.9,102.4,217.5,67.1,227.1C31.9,236.7,-12.2,214.3,-50.3,193.2C-88.5,172,-120.6,152.2,-155.7,126.6C-190.9,101,-229.1,69.7,-245.6,28.5C-262.2,-12.7,-257.1,-63.9,-236,-106.9C-215,-149.9,-178.1,-184.7,-136.1,-197.9C-94.1,-211,-47,-202.5,2.9,-207C52.8,-211.5,105.6,-229,150.8,-217.3Z" fill="#ad28d8" />
  </g>
</svg>
    